<svg width="411" height="448" viewBox="0 0 411 448" fill="none" xmlns="http://www.w3.org/2000/svg">
<rect width="411" height="426" fill="#333333"/>
<g filter="url(#filter0_d)">
<path d="M0 439V336.389C70.4792 131.844 117.307 170.218 205.5 336.389C288.903 457.524 333.446 440.176 411 336.389V439H0Z" fill="#C4C4C4"/>
<path d="M0 439V336.389C70.4792 131.844 117.307 170.218 205.5 336.389C288.903 457.524 333.446 440.176 411 336.389V439H0Z" stroke="black"/>
</g>
<path d="M279.207 0.015242H275C276.362 -0.00486694 277.766 -0.00529323 279.207 0.015242H410.5L410.336 103.015C406.187 21.8799 324.351 0.658652 279.207 0.015242Z" fill="#C4C4C4"/>
<path d="M410.5 109.515C410.5 107.307 410.445 105.141 410.336 103.015M410.336 103.015C406.055 19.2904 319.049 -0.634921 275 0.015242H410.5L410.336 103.015Z" stroke="black"/>
<defs>
<filter id="filter0_d" x="-4.5" y="196.499" width="420" height="251.001" filterUnits="userSpaceOnUse" color-interpolation-filters="sRGB">
<feFlood flood-opacity="0" result="BackgroundImageFix"/>
<feColorMatrix in="SourceAlpha" type="matrix" values="0 0 0 0 0 0 0 0 0 0 0 0 0 0 0 0 0 0 127 0"/>
<feOffset dy="4"/>
<feGaussianBlur stdDeviation="2"/>
<feColorMatrix type="matrix" values="0 0 0 0 0 0 0 0 0 0 0 0 0 0 0 0 0 0 0.25 0"/>
<feBlend mode="normal" in2="BackgroundImageFix" result="effect1_dropShadow"/>
<feBlend mode="normal" in="SourceGraphic" in2="effect1_dropShadow" result="shape"/>
</filter>
</defs>
</svg>
