<svg width="18" height="18" viewBox="0 0 18 18" fill="none" xmlns="http://www.w3.org/2000/svg">
<path d="M10.7037 4.50019C10.2912 5.21269 10.5387 6.13519 11.2512 6.54769C11.9637 6.96019 12.8862 6.71269 13.2987 6.00019C13.7112 5.28769 13.4637 4.36519 12.7512 3.95269C12.0387 3.54019 11.1162 3.78769 10.7037 4.50019Z" fill="#FF2E00"/>
<path d="M11.8803 7.80787C11.8803 7.80787 10.6578 7.10287 9.93031 6.68287C8.14531 5.64787 7.53031 3.35287 8.56531 1.56787L7.26781 0.817871C6.07531 2.87287 6.45031 5.40787 7.99531 7.05037L4.13281 13.7404L5.43031 14.4904L6.55531 12.5404L7.85281 13.2904L5.60281 17.1904L6.90031 17.9404L11.6178 9.77287C12.4728 10.9354 12.6153 12.5404 11.8503 13.8679L13.1478 14.6179C14.3478 12.5554 14.1078 9.68287 11.8803 7.80787Z" fill="#FF2E00"/>
<path d="M9.56224 2.85023C10.1022 3.15773 10.7847 2.97773 11.0997 2.43773C11.4072 1.89773 11.2272 1.21523 10.6872 0.900229C10.1472 0.592729 9.46474 0.772729 9.14974 1.31273C8.84224 1.85273 9.02224 2.54273 9.56224 2.85023Z" fill="#FF2E00"/>
</svg>
